<?xml version="1.0" encoding="UTF-8" standalone="no"?><!DOCTYPE svg PUBLIC "-//W3C//DTD SVG 1.1//EN" "http://www.w3.org/Graphics/SVG/1.1/DTD/svg11.dtd"><svg width="100%" height="100%" viewBox="0 0 158 34" version="1.1" xmlns="http://www.w3.org/2000/svg" xmlns:xlink="http://www.w3.org/1999/xlink" xml:space="preserve" xmlns:serif="http://www.serif.com/" style="fill-rule:evenodd;clip-rule:evenodd;stroke-linejoin:round;stroke-miterlimit:1.41421;"><g transform="matrix(1,0,0,1,-168.193,-508.995)"><g transform="matrix(0.835249,0.549871,-0.549871,0.835249,313.636,-6.1939)"><text x="167.154px" y="520.298px" style="font-family:'FiraSans-Regular', 'Fira Sans', sans-serif;font-size:14px;fill:#6f91b0;">P</text></g><g transform="matrix(0.888399,0.459072,-0.459072,0.888399,260.223,-21.2118)"><text x="173.739px" y="524.61px" style="font-family:'FiraSans-Regular', 'Fira Sans', sans-serif;font-size:14px;fill:#6f91b0;">r</text></g><g transform="matrix(0.918669,0.395027,-0.395027,0.918669,222.654,-27.508)"><text x="178.131px" y="526.967px" style="font-family:'FiraSans-Regular', 'Fira Sans', sans-serif;font-size:14px;fill:#6f91b0;">o</text></g><g transform="matrix(0.946868,0.321621,-0.321621,0.946868,180.379,-31.5363)"><text x="185.639px" y="530.177px" style="font-family:'FiraSans-Regular', 'Fira Sans', sans-serif;font-size:14px;fill:#6f91b0;">d</text></g><g transform="matrix(0.966318,0.257349,-0.257349,0.966318,143.651,-31.8744)"><text x="193.596px" y="532.856px" style="font-family:'FiraSans-Regular', 'Fira Sans', sans-serif;font-size:14px;fill:#6f91b0;">u</text></g><g transform="matrix(0.978288,0.207248,-0.207248,0.978288,115.237,-30.1368)"><text x="201.454px" y="534.93px" style="font-family:'FiraSans-Regular', 'Fira Sans', sans-serif;font-size:14px;fill:#6f91b0;">c</text></g><g transform="matrix(0.984959,0.172789,-0.172789,0.984959,95.7968,-27.8759)"><text x="208.014px" y="536.308px" style="font-family:'FiraSans-Regular', 'Fira Sans', sans-serif;font-size:14px;fill:#6f91b0;">t</text></g><g transform="matrix(0.994333,0.106313,-0.106313,0.994333,58.404,-19.9853)"><text x="216.655px" y="537.81px" style="font-family:'FiraSans-Regular', 'Fira Sans', sans-serif;font-size:14px;fill:#6f91b0;">m</text></g><g transform="matrix(0.998339,0.0576047,-0.0576047,0.998339,31.4302,-12.2724)"><text x="228.583px" y="539.029px" style="font-family:'FiraSans-Regular', 'Fira Sans', sans-serif;font-size:14px;fill:#6f91b0;">a</text></g><g transform="matrix(0.999813,0.0193479,-0.0193479,0.999813,10.4819,-4.46894)"><text x="236.197px" y="539.473px" style="font-family:'FiraSans-Regular', 'Fira Sans', sans-serif;font-size:14px;fill:#6f91b0;">n</text></g><g transform="matrix(0.999849,-0.0173879,0.0173879,0.999849,-9.34603,4.33118)"><text x="244.399px" y="539.626px" style="font-family:'FiraSans-Regular', 'Fira Sans', sans-serif;font-size:14px;fill:#6f91b0;">a</text></g><g transform="matrix(0.998577,-0.0533285,0.0533285,0.998577,-28.4122,14.2002)"><text x="251.883px" y="539.499px" style="font-family:'FiraSans-Regular', 'Fira Sans', sans-serif;font-size:14px;fill:#6f91b0;">g</text></g><g transform="matrix(0.996086,-0.0883931,0.0883931,0.996086,-46.6422,24.9985)"><text x="258.936px" y="539.134px" style="font-family:'FiraSans-Regular', 'Fira Sans', sans-serif;font-size:14px;fill:#6f91b0;">e</text></g><g transform="matrix(0.992163,-0.124946,0.124946,0.992163,-65.189,37.5215)"><text x="266.53px" y="538.452px" style="font-family:'FiraSans-Regular', 'Fira Sans', sans-serif;font-size:14px;fill:#6f91b0;">r</text></g><g transform="matrix(0.990328,-0.138746,0.138746,0.990328,-72.0155,42.7716)"><text x="270.774px" y="537.922px" style="font-family:'FiraSans-Regular', 'Fira Sans', sans-serif;font-size:14px;fill:#6f91b0;">,</text></g><g transform="matrix(0.981175,-0.193119,0.193119,0.981175,-98.4573,63.7519)"><text x="277.782px" y="536.905px" style="font-family:'FiraSans-Regular', 'Fira Sans', sans-serif;font-size:14px;fill:#6f91b0;">u</text></g><g transform="matrix(0.970787,-0.239943,0.239943,0.970787,-120.098,84.2032)"><text x="285.755px" y="535.319px" style="font-family:'FiraSans-Regular', 'Fira Sans', sans-serif;font-size:14px;fill:#6f91b0;">r</text></g><g transform="matrix(0.958205,-0.286082,0.286082,0.958205,-140.625,105.581)"><text x="291.034px" y="534.074px" style="font-family:'FiraSans-Regular', 'Fira Sans', sans-serif;font-size:14px;fill:#6f91b0;">b</text></g><g transform="matrix(0.937645,-0.347594,0.347594,0.937645,-166.197,137.037)"><text x="298.855px" y="531.747px" style="font-family:'FiraSans-Regular', 'Fira Sans', sans-serif;font-size:14px;fill:#6f91b0;">a</text></g><g transform="matrix(0.904399,-0.426688,0.426688,0.904399,-196.515,181.156)"><text x="306.012px" y="529.123px" style="font-family:'FiraSans-Regular', 'Fira Sans', sans-serif;font-size:14px;fill:#6f91b0;">n</text></g><g transform="matrix(0.865434,-0.501024,0.501024,0.865434,-221.137,227.746)"><text x="313.409px" y="525.546px" style="font-family:'FiraSans-Regular', 'Fira Sans', sans-serif;font-size:14px;fill:#6f91b0;">i</text></g><g transform="matrix(0.815286,-0.579058,0.579058,0.815286,-244.679,280.203)"><text x="316.865px" y="523.623px" style="font-family:'FiraSans-Regular', 'Fira Sans', sans-serif;font-size:14px;fill:#6f91b0;">s</text></g><g transform="matrix(0.72334,-0.690492,0.690492,0.72334,-269.787,366.277)"><text x="322.186px" y="519.807px" style="font-family:'FiraSans-Regular', 'Fira Sans', sans-serif;font-size:14px;fill:#6f91b0;">t</text></g></g></svg>